<svg id="Layer_1" data-name="Layer 1" xmlns="http://www.w3.org/2000/svg" xmlns:xlink="http://www.w3.org/1999/xlink" viewBox="0 0 383.41 139.36"><defs><style>.cls-1{fill:url(#linear-gradient);}.cls-2{fill:#cf222c;}.cls-3{fill:#2254a5;}.cls-4{fill:url(#linear-gradient-2);}.cls-5{fill:url(#linear-gradient-3);}</style><linearGradient id="linear-gradient" x1="14.05" y1="64.93" x2="70.46" y2="64.93" gradientTransform="translate(19.38 -9.99) rotate(7.04)" gradientUnits="userSpaceOnUse"><stop offset="0" stop-color="#2d2961"/><stop offset="0.5" stop-color="#66449a"/><stop offset="1" stop-color="#64a3c9"/></linearGradient><linearGradient id="linear-gradient-2" x1="73.43" y1="78.11" x2="4.53" y2="85.64" gradientUnits="userSpaceOnUse"><stop offset="0.16" stop-color="#a12862"/><stop offset="0.47" stop-color="#c43333"/></linearGradient><linearGradient id="linear-gradient-3" x1="0.52" y1="41.06" x2="81.31" y2="41.06" gradientTransform="translate(19.38 -9.99) rotate(7.04)" gradientUnits="userSpaceOnUse"><stop offset="0.16" stop-color="#66449a"/><stop offset="1" stop-color="#64a3c9"/></linearGradient></defs><title>Artboard 4</title><path class="cls-1" d="M78.62,85.21S51.73,95.58,37.41,80.64c-4.81-5-19.52-24.9-5.83-44.15,9.32-13.12,20.07-3.21,20.07-3.21s-18.7,6-13,25.92C41.56,69.67,38.92,81.93,78.62,85.21Z"/><path class="cls-2" d="M158.7,89.32a5.23,5.23,0,0,1,1.85,2.78H159a3.73,3.73,0,0,0-1.39-1.78,4,4,0,0,0-2.36-.67,3.67,3.67,0,0,0-2,.54,3.74,3.74,0,0,0-1.38,1.53,5.25,5.25,0,0,0-.5,2.35,5.15,5.15,0,0,0,.5,2.32,3.8,3.8,0,0,0,1.38,1.53,3.75,3.75,0,0,0,2,.53,4.07,4.07,0,0,0,2.36-.66A3.8,3.8,0,0,0,159,96h1.53a5.19,5.19,0,0,1-1.85,2.78,5.48,5.48,0,0,1-3.41,1,5.38,5.38,0,0,1-2.8-.73,5.16,5.16,0,0,1-1.9-2,6.87,6.87,0,0,1,0-6,5,5,0,0,1,1.9-2,5.29,5.29,0,0,1,2.8-.73A5.54,5.54,0,0,1,158.7,89.32Z"/><path class="cls-2" d="M170.52,95.62h-7a3.09,3.09,0,0,0,.85,2.26,2.81,2.81,0,0,0,2,.75,2.87,2.87,0,0,0,1.77-.54,2.24,2.24,0,0,0,.87-1.43h1.55a3.68,3.68,0,0,1-.71,1.63,3.78,3.78,0,0,1-1.43,1.12,4.72,4.72,0,0,1-2,.4,4.56,4.56,0,0,1-2.24-.54,3.87,3.87,0,0,1-1.52-1.56,5.4,5.4,0,0,1,0-4.79,3.72,3.72,0,0,1,1.52-1.57,4.45,4.45,0,0,1,2.24-.55,4.38,4.38,0,0,1,2.24.55,3.74,3.74,0,0,1,1.45,1.45,4.07,4.07,0,0,1,.51,2A4.49,4.49,0,0,1,170.52,95.62Zm-1.73-2.34a2.34,2.34,0,0,0-1-1,3,3,0,0,0-1.4-.32,2.88,2.88,0,0,0-2,.74,3,3,0,0,0-.88,2.19h5.61A2.9,2.9,0,0,0,168.79,93.28Z"/><path class="cls-2" d="M175.21,91.28a3.69,3.69,0,0,1,2-.51v1.58h-.45a3.1,3.1,0,0,0-2,.64,2.53,2.53,0,0,0-.79,2.09V99.7h-1.45V90.92h1.45v1.77A3.17,3.17,0,0,1,175.21,91.28Z"/><path class="cls-2" d="M182.83,98.42V99.7h-1.09a2.77,2.77,0,0,1-2-.64,2.9,2.9,0,0,1-.67-2.14V92.18h-1.31V90.92h1.31v-2.2h1.48v2.2h2.27v1.26h-2.27V97a1.65,1.65,0,0,0,.31,1.16,1.5,1.5,0,0,0,1.08.31Z"/><path class="cls-2" d="M190.37,91.44a3.39,3.39,0,0,1,1.24,1.72V90.92h1.45V99.7h-1.45V97.46a3.41,3.41,0,0,1-1.24,1.71,3.6,3.6,0,0,1-2.17.64,4,4,0,0,1-2.08-.54,3.79,3.79,0,0,1-1.43-1.56,5.78,5.78,0,0,1,0-4.79,3.64,3.64,0,0,1,1.43-1.57,3.92,3.92,0,0,1,2.08-.55A3.66,3.66,0,0,1,190.37,91.44ZM186.46,93a3.32,3.32,0,0,0-.8,2.36,3.36,3.36,0,0,0,.8,2.36,2.83,2.83,0,0,0,2.16.85,3,3,0,0,0,1.54-.4A2.76,2.76,0,0,0,191.22,97a3.47,3.47,0,0,0,.39-1.68,3.58,3.58,0,0,0-.39-1.7,2.7,2.7,0,0,0-1.06-1.13,3,3,0,0,0-1.54-.39A2.8,2.8,0,0,0,186.46,93Z"/><path class="cls-2" d="M195.4,87.69a1.16,1.16,0,0,1,1.44,0,.92.92,0,0,1,0,1.3,1.16,1.16,0,0,1-1.44,0,.92.92,0,0,1,0-1.3Zm1.44,3.23V99.7h-1.46V90.92Z"/><path class="cls-2" d="M206.28,91.76a3.93,3.93,0,0,1,.94,2.84v5.1h-1.45v-5a2.83,2.83,0,0,0-.67-2,2.42,2.42,0,0,0-1.83-.71,2.49,2.49,0,0,0-1.92.78,3.21,3.21,0,0,0-.72,2.26V99.7h-1.45V90.92h1.45V93a3,3,0,0,1,1.19-1.65,3.44,3.44,0,0,1,2-.58A3.28,3.28,0,0,1,206.28,91.76Z"/><path class="cls-2" d="M213.66,98.42V99.7h-1.09a2.77,2.77,0,0,1-2-.64,2.9,2.9,0,0,1-.66-2.14V92.18h-1.32V90.92h1.32v-2.2h1.47v2.2h2.27v1.26h-2.27V97a1.65,1.65,0,0,0,.31,1.16,1.5,1.5,0,0,0,1.08.31Z"/><path class="cls-2" d="M216,90.92l2.85,6.91,2.64-6.91h1.61l-5.21,12.94h-1.65l1.82-4.3-3.69-8.64Z"/><path class="cls-2" d="M228.44,87.69a1.16,1.16,0,0,1,1.44,0,.92.92,0,0,1,0,1.3,1.16,1.16,0,0,1-1.44,0,.92.92,0,0,1,0-1.3Zm1.44,3.23V99.7h-1.46V90.92Z"/><path class="cls-2" d="M239.32,91.76a3.93,3.93,0,0,1,.94,2.84v5.1h-1.45v-5a2.83,2.83,0,0,0-.67-2,2.42,2.42,0,0,0-1.83-.71,2.49,2.49,0,0,0-1.92.78,3.21,3.21,0,0,0-.72,2.26V99.7h-1.45V90.92h1.45V93a3,3,0,0,1,1.19-1.65,3.42,3.42,0,0,1,2-.58A3.28,3.28,0,0,1,239.32,91.76Z"/><path class="cls-2" d="M247.06,90.92l2.85,6.91,2.64-6.91h1.62L249,103.86H247.3l1.83-4.3-3.7-8.64Z"/><path class="cls-2" d="M261.74,91.35a3.83,3.83,0,0,1,1.57,1.57,5.32,5.32,0,0,1,0,4.79,4,4,0,0,1-1.57,1.56,5,5,0,0,1-4.52,0,4,4,0,0,1-1.58-1.56,5.23,5.23,0,0,1,0-4.79,3.85,3.85,0,0,1,1.58-1.57,4.92,4.92,0,0,1,4.52,0ZM258,92.44A2.59,2.59,0,0,0,257,93.52a4.11,4.11,0,0,0,0,3.58A2.71,2.71,0,0,0,258,98.18a3.18,3.18,0,0,0,2.9,0A2.71,2.71,0,0,0,262,97.1a4.11,4.11,0,0,0,0-3.58,2.59,2.59,0,0,0-1.07-1.08,3.1,3.1,0,0,0-2.9,0Z"/><path class="cls-2" d="M273.59,90.92V99.7h-1.45V97.64a3,3,0,0,1-1.2,1.64,3.57,3.57,0,0,1-2,.56,3.24,3.24,0,0,1-2.46-1,3.93,3.93,0,0,1-.95-2.82V90.92H267v5a2.84,2.84,0,0,0,.67,2,2.42,2.42,0,0,0,1.83.71,2.49,2.49,0,0,0,1.92-.78,3.21,3.21,0,0,0,.72-2.26V90.92Z"/><path class="cls-2" d="M278.65,91.28a3.69,3.69,0,0,1,2-.51v1.58h-.45a3.1,3.1,0,0,0-2,.64,2.5,2.5,0,0,0-.79,2.09V99.7h-1.45V90.92h1.45v1.77A3.17,3.17,0,0,1,278.65,91.28Z"/><path class="cls-2" d="M290.22,98.42V99.7h-1.09a2.77,2.77,0,0,1-2-.64,2.9,2.9,0,0,1-.67-2.14V92.18h-1.31V90.92h1.31v-2.2h1.48v2.2h2.27v1.26h-2.27V97a1.65,1.65,0,0,0,.31,1.16,1.5,1.5,0,0,0,1.08.31Z"/><path class="cls-2" d="M294.71,91.28a3.74,3.74,0,0,1,2-.51v1.58h-.44a3.13,3.13,0,0,0-2,.64,2.53,2.53,0,0,0-.78,2.09V99.7H292V90.92h1.46v1.77A3.15,3.15,0,0,1,294.71,91.28Z"/><path class="cls-2" d="M298.15,87.69a1.16,1.16,0,0,1,1.44,0,.92.92,0,0,1,0,1.3,1.16,1.16,0,0,1-1.44,0,.92.92,0,0,1,0-1.3Zm1.44,3.23V99.7h-1.46V90.92Z"/><path class="cls-2" d="M308.85,91.35a3.72,3.72,0,0,1,1.44,1.57,5.78,5.78,0,0,1,0,4.79,3.88,3.88,0,0,1-1.44,1.56,4,4,0,0,1-2.08.54,3.51,3.51,0,0,1-2.16-.65,3.29,3.29,0,0,1-1.23-1.7v6.4h-1.45V90.92h1.45v2.24a3.28,3.28,0,0,1,1.23-1.71,3.57,3.57,0,0,1,2.16-.65A3.89,3.89,0,0,1,308.85,91.35Zm-4,1.14a2.72,2.72,0,0,0-1.07,1.13,3.58,3.58,0,0,0-.38,1.7,3.47,3.47,0,0,0,.38,1.68,2.78,2.78,0,0,0,1.07,1.13,3,3,0,0,0,1.54.4,2.84,2.84,0,0,0,2.17-.85,3.36,3.36,0,0,0,.8-2.36,3.32,3.32,0,0,0-.8-2.36,2.81,2.81,0,0,0-2.17-.86A3.07,3.07,0,0,0,304.82,92.49Z"/><path class="cls-2" d="M313.78,98V99.7H312V98Z"/><path class="cls-3" d="M139.3,45.27V71.72H135V59.84H122.55V71.72h-4.27V45.27h4.27V56.36H135V45.27Z"/><path class="cls-3" d="M157.55,52.2a7.48,7.48,0,0,1,2.81,3.67v-4.8h4.27V71.72h-4.27V66.93a7.52,7.52,0,0,1-2.81,3.67,8.23,8.23,0,0,1-4.8,1.38,9.12,9.12,0,0,1-4.81-1.27A8.65,8.65,0,0,1,144.62,67a13.85,13.85,0,0,1,0-11.28,8.65,8.65,0,0,1,3.32-3.67,9.13,9.13,0,0,1,4.81-1.28A8.16,8.16,0,0,1,157.55,52.2Zm-8,4.18a7,7,0,0,0-1.7,5,7,7,0,0,0,1.7,5,6,6,0,0,0,4.55,1.82,6.25,6.25,0,0,0,3.23-.84A6.12,6.12,0,0,0,159.53,65a8.18,8.18,0,0,0,0-7.18,6,6,0,0,0-2.24-2.4,6.25,6.25,0,0,0-3.23-.84A6,6,0,0,0,149.51,56.38Z"/><path class="cls-3" d="M174,44V71.72h-4.28V44Z"/><path class="cls-3" d="M192.28,52.2a7.42,7.42,0,0,1,2.81,3.67v-4.8h4.28V71.72h-4.28V66.93a7.47,7.47,0,0,1-2.81,3.67A8.17,8.17,0,0,1,187.49,72a9.16,9.16,0,0,1-4.82-1.27A8.7,8.7,0,0,1,179.36,67a13.85,13.85,0,0,1,0-11.28,8.7,8.7,0,0,1,3.31-3.67,9.16,9.16,0,0,1,4.82-1.28A8.11,8.11,0,0,1,192.28,52.2Zm-8,4.18a7,7,0,0,0-1.71,5,7,7,0,0,0,1.71,5,5.94,5.94,0,0,0,4.55,1.82,6.21,6.21,0,0,0,3.22-.84A6.07,6.07,0,0,0,194.27,65a8.27,8.27,0,0,0,0-7.18A5.93,5.93,0,0,0,192,55.4a6.21,6.21,0,0,0-3.22-.84A5.94,5.94,0,0,0,184.25,56.38Z"/><path class="cls-3" d="M208.77,44V71.72H204.5V44Z"/><path class="cls-3" d="M218.21,48.71v8H228V60h-9.75v8.21h10.87v3.48H213.94V45.27h15.14v3.44Z"/><path class="cls-3" d="M245.46,71.72l-5.06-7.31L236,71.72h-4.76L238,61l-6.9-9.93H236l4.94,7.12,4.39-7.12H250l-6.82,10.42,7.08,10.23Z"/><path class="cls-3" d="M269.91,52.09a8.7,8.7,0,0,1,3.31,3.67,13.85,13.85,0,0,1,0,11.28,8.7,8.7,0,0,1-3.31,3.67A9.18,9.18,0,0,1,265.09,72a8.23,8.23,0,0,1-4.8-1.38,7.33,7.33,0,0,1-2.77-3.67V81.54h-4.27V51.07h4.27v4.8a7.29,7.29,0,0,1,2.77-3.67,8.16,8.16,0,0,1,4.8-1.39A9.19,9.19,0,0,1,269.91,52.09Zm-9.35,3.31a5.93,5.93,0,0,0-2.25,2.4,8.18,8.18,0,0,0,0,7.18,6.07,6.07,0,0,0,2.25,2.38,6.21,6.21,0,0,0,3.22.84,6,6,0,0,0,4.57-1.82,7,7,0,0,0,1.72-5,7,7,0,0,0-1.72-5,6,6,0,0,0-4.57-1.84A6.21,6.21,0,0,0,260.56,55.4Z"/><path class="cls-3" d="M282.82,44V71.72h-4.28V44Z"/><path class="cls-3" d="M302.83,52.09a9.18,9.18,0,0,1,3.74,3.67,12.46,12.46,0,0,1,0,11.28,9.18,9.18,0,0,1-3.74,3.67,12.07,12.07,0,0,1-10.78,0A9.29,9.29,0,0,1,288.31,67a12.25,12.25,0,0,1,0-11.26,9.3,9.3,0,0,1,3.74-3.67,12,12,0,0,1,10.78,0Zm-8.44,3.18a5.59,5.59,0,0,0-2.23,2.31,9.06,9.06,0,0,0,0,7.62,5.6,5.6,0,0,0,2.23,2.29,6.31,6.31,0,0,0,3,.75,6.24,6.24,0,0,0,3-.75,5.48,5.48,0,0,0,2.23-2.29,9,9,0,0,0,0-7.62,5.47,5.47,0,0,0-2.23-2.31,6.24,6.24,0,0,0-3-.75A6.31,6.31,0,0,0,294.39,55.27Z"/><path class="cls-3" d="M319.31,51.92a8.49,8.49,0,0,1,4.5-1.18v4.64h-1.27A7,7,0,0,0,318,56.75c-1.14.91-1.7,2.42-1.7,4.52V71.72H312V51.07h4.28v4A7.88,7.88,0,0,1,319.31,51.92Z"/><path class="cls-3" d="M346,62.24H330.14A6.5,6.5,0,0,0,331.9,67,5.75,5.75,0,0,0,336,68.5a5.88,5.88,0,0,0,3.61-1.09,4.43,4.43,0,0,0,1.82-2.88H346a8.9,8.9,0,0,1-1.72,3.86A9,9,0,0,1,340.86,71a11.12,11.12,0,0,1-4.68,1,10.81,10.81,0,0,1-5.31-1.27A9.05,9.05,0,0,1,327.26,67a12.71,12.71,0,0,1,0-11.28,9.05,9.05,0,0,1,3.61-3.67,11.72,11.72,0,0,1,10.61,0A8.63,8.63,0,0,1,345,55.52,10.61,10.61,0,0,1,346,62.24Zm-4.85-5.34a4.81,4.81,0,0,0-2.1-2,6.46,6.46,0,0,0-2.9-.66,6,6,0,0,0-4.2,1.54,6.24,6.24,0,0,0-1.84,4.53h11.73A6.36,6.36,0,0,0,341.18,56.9Z"/><path class="cls-4" d="M98.56,91.4a3.18,3.18,0,0,0-4.46,1.5,27.54,27.54,0,0,1-25.25,16.56c-10.21,0-17.45-6-21.1-14.53C42,81.59,47.51,65.82,59.69,58.2c4.36-2.72,9.38-4.14,14.35-5.3A120.32,120.32,0,0,1,88,50.82c-.2-3.07-1.73-3.61-1.22-4.76,1-2.19,4.45-2,5.51-4.92a3.2,3.2,0,0,0-3.31-4.27c-8.37.81-9.11,3.19-20.53,3.19-20,0-38.19,21.82-38.19,41.86a36.29,36.29,0,0,0,70,13.53,3.19,3.19,0,0,0-1.42-4Z"/><path class="cls-5" d="M88,50.82S49.87,29.1,28.74,41.28c0,0,7.67-17.12,23.6-16.65C66.15,25,96.88,36.4,96.88,36.4Z"/></svg>